<svg id="Layer_1" data-name="Layer 1" xmlns="http://www.w3.org/2000/svg" viewBox="0 0 338.49 326"><defs><style>.cls-1{opacity:0.96;}.cls-2{fill:none;stroke:#231f20;stroke-miterlimit:10;stroke-width:10px;}.cls-3{fill:#231f20;}</style></defs><g class="cls-1"><circle class="cls-2" cx="163" cy="163" r="158"/><circle class="cls-3" cx="163" cy="163" r="10.06"/><rect class="cls-3" x="178.45" y="61.33" width="13.02" height="204.51"/><polygon class="cls-3" points="189.8 165.72 178.52 159.21 235.18 61.08 250.21 61.08 189.8 165.72"/><polygon class="cls-3" points="240.34 265.87 255.38 265.87 189.8 152.28 178.52 158.79 240.34 265.87"/><rect class="cls-3" x="134.79" y="61.33" width="13.02" height="204.51"/><rect class="cls-3" x="19.72" y="157.2" width="28.21" height="12.78"/><rect class="cls-3" x="19.72" y="157.2" width="14.11" height="12.78"/><rect class="cls-3" x="38.27" y="225.23" width="14.11" height="12.78" transform="translate(-109.74 53.69) rotate(-30)"/><rect class="cls-3" x="88.34" y="274.88" width="14.11" height="12.78" transform="translate(-195.89 223.25) rotate(-60)"/><rect class="cls-3" x="87.33" y="38.93" width="14.11" height="12.78" transform="translate(86.44 -59.08) rotate(60)"/><rect class="cls-3" x="37.68" y="89.01" width="14.11" height="12.78" transform="translate(53.69 -9.59) rotate(30)"/><rect class="cls-3" x="322.53" y="139.29" width="15.96" height="48.6" rx="3.04"/></g></svg>